# xmcd
#
# Track frame offsets: 
#        150
#        15429
#        28905
#        43726
#        58242
#        87216
#        98768
#        112919
#        127450
#        151296
#        165249
#        179788
#        193337
#        211906
#        223987
#        244519
#        259158
#        274052
#
# Disc length: 3949 seconds
#
# Revision: 2
# Processed by: cddbd v1.5.2PL0 Copyright (c) Steve Scherf et al.
# Submitted via: ExactAudioCopy v0.95b3
#
DISCID=0a0f6b12
DTITLE=Senders - Jumpin' Uptown
DYEAR=1996
DGENRE=
TTITLE0=Southshore Drive
TTITLE1=Keep On Churnin'
TTITLE2=So Good
TTITLE3=Don't Shout At Me Daddy
TTITLE4=I Wanna Be Around
TTITLE5=It's Obdacious
TTITLE6=You'd Better Believe Me
TTITLE7=Complainin' Woman
TTITLE8=Without Your Love
TTITLE9=They Don't Want Me To Rock
TTITLE10=Flyin' Home
TTITLE11=Wasn't That Good
TTITLE12=Trouble In Mind
TTITLE13=Your Red Wagon
TTITLE14=Midnight Special
TTITLE15=Everything I Do Is Wrong
TTITLE16=All She Wants To Do Is Rock
TTITLE17=Satisfy My Soul
EXTD=
EXTT0=
EXTT1=
EXTT2=
EXTT3=
EXTT4=
EXTT5=
EXTT6=
EXTT7=
EXTT8=
EXTT9=
EXTT10=
EXTT11=
EXTT12=
EXTT13=
EXTT14=
EXTT15=
EXTT16=
EXTT17=
PLAYORDER=
